{
  "accessors": [
    {
      "bufferView": 2,
      "componentType": 5126,
      "count": 1236,
      "max": [9.002256393432617, 80.78668975830078, 29.27321434020996],
      "min": [-8.054184913635254, 0.10638013482093811, -22.378841400146484],
      "type": "VEC3"
    },
    {
      "bufferView": 2,
      "byteOffset": 14832,
      "componentType": 5126,
      "count": 1236,
      "max": [1.0, 1.0, 1.0],
      "min": [-1.0, -1.0, -1.0],
      "type": "VEC3"
    },
    {
      "bufferView": 3,
      "componentType": 5126,
      "count": 1236,
      "max": [1.0, 1.0, 0.9999445676803589, 1.0],
      "min": [-1.0, -1.0, -0.9967791438102722, 1.0],
      "type": "VEC4"
    },
    {
      "bufferView": 1,
      "componentType": 5126,
      "count": 1236,
      "max": [0.9940390586853027, 0.9901488423347473],
      "min": [0.0059609427116811275, 0.0059609427116811275],
      "type": "VEC2"
    },
    {
      "bufferView": 0,
      "componentType": 5125,
      "count": 4290,
      "type": "SCALAR"
    }
  ],
  "asset": {
    "extras": {
      "author": "super_arte (https://sketchfab.com/super_arte)",
      "license": "SKETCHFAB Standard (https://sketchfab.com/licenses)",
      "source": "https://sketchfab.com/3d-models/desk-lamp-low-poly-pbr-5da3ddb494b84560963654cfc07bf037",
      "title": "Desk Lamp, Low Poly PBR"
    },
    "generator": "Sketchfab-16.15.0",
    "version": "2.0"
  },
  "bufferViews": [
    {
      "buffer": 0,
      "byteLength": 17160,
      "name": "floatBufferViews",
      "target": 34963
    },
    {
      "buffer": 0,
      "byteLength": 9888,
      "byteOffset": 17160,
      "byteStride": 8,
      "name": "floatBufferViews",
      "target": 34962
    },
    {
      "buffer": 0,
      "byteLength": 29664,
      "byteOffset": 27048,
      "byteStride": 12,
      "name": "floatBufferViews",
      "target": 34962
    },
    {
      "buffer": 0,
      "byteLength": 19776,
      "byteOffset": 56712,
      "byteStride": 16,
      "name": "floatBufferViews",
      "target": 34962
    }
  ],
  "buffers": [
    {
      "byteLength": 76488,
      "uri": "scene.bin"
    }
  ],
  "extensionsUsed": ["KHR_materials_transmission"],
  "images": [
    {
      "uri": "Lamp_baseColor.png"
    },
    {
      "uri": "Lamp_metallicRoughness.png"
    },
    {
      "uri": "Lamp_normal.png"
    }
  ],
  "materials": [
    {
      "doubleSided": true,
      "extensions": {
        "KHR_materials_transmission": {
          "transmissionFactor": 0.0
        }
      },
      "name": "Lamp",
      "normalTexture": {
        "index": 2
      },
      "pbrMetallicRoughness": {
        "baseColorTexture": {
          "index": 0
        },
        "metallicRoughnessTexture": {
          "index": 1
        }
      }
    }
  ],
  "meshes": [
    {
      "name": "Lamp_Lamp_0",
      "primitives": [
        {
          "attributes": {
            "NORMAL": 1,
            "POSITION": 0,
            "TANGENT": 2,
            "TEXCOORD_0": 3
          },
          "indices": 4,
          "material": 0,
          "mode": 4
        }
      ]
    }
  ],
  "nodes": [
    {
      "children": [1],
      "matrix": [
        1.0, 0.0, 0.0, 0.0, 0.0, 2.220446049250313e-16, -1.0, 0.0, 0.0, 1.0, 2.220446049250313e-16,
        0.0, 0.0, 0.0, 0.0, 1.0
      ],
      "name": "Sketchfab_model"
    },
    {
      "children": [2],
      "matrix": [
        0.009999999776482582, 0.0, 0.0, 0.0, 0.0, 0.0, 0.009999999776482582, 0.0, 0.0,
        -0.009999999776482582, 0.0, 0.0, 0.0, 0.0, 0.0, 1.0
      ],
      "name": "4710b94dc2394db28a9155515315de67.fbx"
    },
    {
      "children": [3],
      "name": "RootNode"
    },
    {
      "children": [4],
      "name": "Lamp"
    },
    {
      "mesh": 0,
      "name": "Lamp_Lamp_0"
    }
  ],
  "samplers": [
    {
      "magFilter": 9729,
      "minFilter": 9987,
      "wrapS": 10497,
      "wrapT": 10497
    }
  ],
  "scene": 0,
  "scenes": [
    {
      "name": "Sketchfab_Scene",
      "nodes": [0]
    }
  ],
  "textures": [
    {
      "sampler": 0,
      "source": 0
    },
    {
      "sampler": 0,
      "source": 1
    },
    {
      "sampler": 0,
      "source": 2
    }
  ]
}
